<svg width="100" height="100" viewBox="0 0 100 100" fill="none" xmlns="http://www.w3.org/2000/svg">
<g clip-path="url(#clip0_7_2)">
<path d="M14.7469 0C9.01876 0 6.91876 2.11563 6.91876 7.82813V76.8375C6.91876 77.4906 6.95314 78.0906 7.00314 78.6469C7.15001 79.9 7.15001 81.1219 8.31876 82.4875C8.43126 82.65 9.60626 83.5125 9.60626 83.5125C10.2406 83.8219 10.6781 84.05 11.3938 84.3406L46.1281 98.8906C47.9188 99.7063 48.6875 100.05 49.9875 100H50.0031C51.3188 100.05 52.0875 99.7094 53.8781 98.8906L88.5938 84.3406C89.3281 84.05 89.7469 83.8188 90.3969 83.5125C90.3969 83.5125 91.5719 82.6156 91.6844 82.4875C92.8563 81.1219 92.8563 79.9 93 78.6469C93.05 78.0937 93.0844 77.4937 93.0844 76.8562V7.83125C93.0844 2.11875 90.9688 0.003125 85.2563 0.003125L14.7469 0ZM70.3969 12.9531H73.225C77.9469 12.9531 80.2594 15.25 80.2594 20.0375V27.8656H74.5313V20.3438C74.5313 18.8156 73.8313 18.1156 72.3469 18.1156H71.3719C69.8438 18.1156 69.1438 18.8156 69.1438 20.3438V44.5594C69.1438 46.0875 69.8438 46.7875 71.3719 46.7875H72.4625C73.925 46.7875 74.625 46.0875 74.625 44.5594V35.9H80.3531V44.8375C80.3531 49.6031 78.0125 51.95 73.275 51.95H70.3969C65.6438 51.95 63.3125 49.5875 63.3125 44.8375V20.0781C63.3125 15.3125 65.6406 12.95 70.3969 12.95V12.9531ZM19.6125 13.2844H32.5844V18.6062H25.4375V29.4437H32.325V34.7531H25.4375V46.3062H32.6844V51.6312H19.6125V13.2844ZM35.5125 13.2844H44.6625C49.3969 13.2844 51.7406 15.6438 51.7406 20.4094V30.6C51.7406 35.3656 49.3938 37.7125 44.6625 37.7125H41.3594V51.6281H35.5125V13.2844ZM54.3781 13.2844H60.2031V51.6312H54.3781V13.2844ZM41.3406 18.4406V32.5656H43.75C45.2156 32.5656 45.9156 31.8531 45.9156 30.3187V20.6844C45.9156 19.1562 45.2156 18.4375 43.75 18.4375L41.3406 18.4406ZM25.275 60.7406H26.1375L26.3344 60.775H26.6469L26.8094 60.825H26.9719L27.1188 60.8719L27.2813 60.9062L27.4094 60.9406L27.7 61.0062L27.8656 61.0531L27.9781 61.0875L28.1063 61.1375L28.2688 61.1875L28.3813 61.2344L28.5469 61.3L28.6938 61.3656L28.8219 61.4438L28.9688 61.5094L29.0813 61.5875L29.2469 61.6719L29.375 61.75L29.5031 61.8156L29.6313 61.9125L29.7656 61.9969L29.8781 62.0938L30.2688 62.3906L30.1688 62.5188L30.0563 62.6312L29.9563 62.7469L29.8438 62.875L29.7656 62.9875L29.6656 63.1031L29.5531 63.2156L29.4531 63.3438L29.375 63.4562L29.2594 63.5906L29.1625 63.7031L29.05 63.8313L28.95 63.9469L28.8719 64.075L28.7563 64.1875L28.6594 64.3219L28.5469 64.4344L28.4469 64.5469L28.3344 64.4687L28.2063 64.3531L28.0719 64.275L27.8313 64.1125L27.6844 64.0281L27.55 63.95L27.4031 63.8656L27.2906 63.8L27.1625 63.7375L26.9 63.6375L26.7375 63.6094L26.6094 63.575L26.4625 63.5406L26.2969 63.5063L26.1344 63.4906H25.9719L25.7813 63.4562H25.4688L25.3063 63.4719H25.1438L24.9813 63.5219L24.8531 63.5562L24.7063 63.6063L24.5594 63.6344L24.425 63.7L24.2625 63.7656L24.0375 63.9281L23.9031 64.0063L23.7906 64.1062L23.6781 64.1844L23.5625 64.2844L23.4844 64.3969L23.35 64.5094L23.1875 64.7375L23.1094 64.8656L23.0438 65.0125L22.9656 65.1281L22.8813 65.275L22.8313 65.4219L22.7688 65.55L22.7188 65.7125L22.7031 65.875L22.6563 66.025L22.6219 66.1875V66.35L22.6063 66.5125V66.8875L22.6219 67.05V67.1781L22.6375 67.3406L22.6656 67.4875L22.7156 67.6156L22.7313 67.7813L22.7813 67.9094L22.8281 68.0219L22.8938 68.1844L22.9781 68.3469L23.0406 68.4625L23.2031 68.7219L23.3031 68.85L23.3813 68.9656L23.5156 69.0625L23.5938 69.175L23.7063 69.275L23.9688 69.4719L24.0813 69.5344L24.2094 69.6187L24.3594 69.6844L24.5219 69.7469L24.6344 69.8125L24.9594 69.9094L25.1063 69.925L25.2688 69.975L25.4313 69.9906H26.1313L26.3281 69.975H26.475L26.6406 69.9094L26.8031 69.8937L26.9656 69.8469L27.0938 69.8125L27.2406 69.7469L27.3688 69.6844L27.5156 69.6187L27.6156 69.5531L27.7438 69.475V68.025H25.4469V65.7H30.6375V70.9094L30.525 70.9875L30.4125 71.0844L30.2969 71.1688L30.1688 71.2656L30.0406 71.3313L29.9281 71.4312L29.6656 71.5937L29.5031 71.6719L29.2438 71.8344L29.0781 71.9L28.95 71.9625L28.8031 72.0281L28.4781 72.1563L28.35 72.2219L28.0531 72.3188L27.9063 72.3531L27.7594 72.4031L27.5969 72.4531L27.4688 72.4813L26.9813 72.5812L26.8313 72.5969L26.5063 72.6313L26.3281 72.6469L26.1656 72.6594L25.9875 72.675H25.175L25.0125 72.6469H24.85L24.6875 72.6125H24.5406L24.3781 72.5625L23.9031 72.4656L23.775 72.4156L23.6281 72.4L23.4656 72.3344L23.1688 72.2375L22.8781 72.1094L22.7156 72.0438L22.6031 71.9781L22.4406 71.9156L22.325 71.8156L22.1625 71.7531L22.0656 71.6688L21.9375 71.5906L21.675 71.3938L21.5469 71.3094L21.4469 71.2125L21.3188 71.1125L21.1063 70.9031L20.9938 70.8031L20.8969 70.6906L20.7813 70.575L20.7031 70.4469L20.6031 70.35L20.525 70.2156L20.425 70.0875L20.3469 69.975L20.2625 69.8469L20.1844 69.6969L20.1188 69.5687L20.0531 69.4219L19.9906 69.2937L19.8625 68.9969L19.8125 68.8844L19.7469 68.7375L19.7125 68.5906L19.6844 68.4625L19.65 68.3L19.6 68.15L19.5656 67.9875L19.55 67.8594L19.5219 67.6969L19.4875 67.4062L19.4531 67.0812V66.2188L19.4875 66.0531V65.8906L19.5375 65.7281V65.5656L19.5844 65.4188L19.6344 65.2562L19.7 64.9656L19.7469 64.8031L19.7969 64.6563L19.9938 64.2156L20.0563 64.0875L20.1219 63.9406L20.2063 63.7906L20.2688 63.6625L20.3531 63.55L20.5156 63.2875L20.6125 63.1594L20.7125 63.0469L20.7906 62.9188L21.0031 62.7062L21.1 62.5906L21.2156 62.4781L21.3125 62.3656L21.4469 62.2656L21.6719 62.0687L21.8 61.9719L21.9344 61.8875L22.0469 61.7906L22.175 61.7063L22.3094 61.6437L22.4563 61.5594L22.6188 61.4812L22.7313 61.3969L22.8938 61.3344L23.0406 61.2688L23.1875 61.1906L23.3219 61.1562L23.4844 61.1063L23.6125 61.0406L23.7594 61.0125L23.9063 60.9625L24.0688 60.9281L24.2031 60.8781L24.3656 60.8437H24.5281L24.675 60.7969H24.8375L25 60.7625H25.1469L25.275 60.7406ZM75.2281 60.775H76.0906L76.2875 60.8094H76.5969L76.7594 60.8563H76.9375L77.1 60.9062L77.3906 60.9719L77.5531 61.0062L77.7 61.0344L77.8656 61.0844L78.0125 61.1344L78.1406 61.1687L78.2875 61.2156L78.45 61.2656L78.5781 61.3312L78.7406 61.3937L78.8906 61.4594L79.0375 61.5438L79.15 61.6063L79.2969 61.6906L79.4438 61.7531L79.5781 61.8375L79.725 61.9344L79.8375 62.0188L80.1 62.2156L80.2281 62.2938L80.1281 62.4219L80.05 62.5562L79.9531 62.6688L79.8531 62.7969L79.775 62.9438L79.6906 63.0781L79.5938 63.1906L79.4938 63.3187L79.4156 63.4531L79.3156 63.5813L79.2375 63.6937L79.1375 63.8219L79.0594 63.9719L78.9594 64.1L78.8625 64.2125L78.7625 64.3406L78.6844 64.475L78.5563 64.375L78.4063 64.2969L78.2938 64.2125L78.1656 64.1344L78.0188 64.0688L77.8844 63.9844L77.7375 63.9219L77.625 63.8563L77.4625 63.7937L77.3469 63.7281L77.2188 63.6781L76.9281 63.5813L76.6031 63.4812L76.1156 63.3844L75.9531 63.3687L75.6563 63.3344H75.3156L75.1375 63.3687L74.975 63.4031L74.8281 63.4375L74.7 63.5L74.5844 63.5656L74.4563 63.6781L74.3594 63.825L74.2938 63.975V64.3625L74.3781 64.5406L74.4406 64.6406L74.5406 64.7375L74.7031 64.8219L74.8313 64.9L74.9781 64.9656L75.1406 65.0281L75.3531 65.0781L75.4656 65.1281L75.6 65.1625L75.7625 65.1969L75.8906 65.2438L76.0375 65.2781L76.2156 65.3281L76.3781 65.3781L76.5563 65.425L76.7344 65.4594L76.8813 65.5094L77.0594 65.5563L77.2219 65.5906L77.3688 65.625L77.8594 65.7719L77.9875 65.8219L78.15 65.8719L78.2969 65.9344L78.4594 66.0187L78.7844 66.1469L78.9313 66.2313L79.1938 66.3938L79.4344 66.5719L79.5844 66.6687L79.6969 66.7813L79.8094 66.9156L79.925 67.0281L80.0031 67.1406L80.1188 67.3031L80.1969 67.4187L80.2625 67.5812L80.325 67.6781L80.375 67.8406L80.425 67.975L80.4594 68.1219L80.5219 68.4469L80.5375 68.6094L80.5531 68.7563V69.1469L80.5375 69.325L80.5031 69.65L80.4688 69.8125L80.4219 69.9594L80.3875 70.1219L80.3375 70.2844L80.2906 70.4313L80.225 70.5469L80.1594 70.6937L80.0813 70.8219L79.9813 70.9375L79.8188 71.1969L79.6219 71.425L79.5094 71.5031L79.3813 71.6187L79.2813 71.7156L79.1531 71.8125L79.025 71.8781L78.8969 71.9781L78.7469 72.0563L78.4563 72.2031L78.2938 72.2687L78.1469 72.3312L77.9844 72.3813L77.8375 72.4312L77.7031 72.4656L77.3781 72.5281L77.2656 72.5625L77.1031 72.5969H76.9406L76.7938 72.6313H76.6313L76.4688 72.6656H75.3094L74.8219 72.6156L74.6594 72.5812L74.5125 72.5656L74.1875 72.5031L74.0094 72.4688L73.8625 72.4344L73.7 72.3844L73.5344 72.35L73.3875 72.3031L73.225 72.2531L73.0625 72.1875L72.9344 72.1406L72.7719 72.0906L72.6094 72.025L72.4938 71.9625L72.3313 71.9125L72.2031 71.8281L72.0406 71.7656L71.9125 71.6812L71.7969 71.6031L71.6344 71.5187L71.5219 71.4562L71.3938 71.3562L71.2656 71.2781L71.1313 71.1781L71.0188 71.0813L70.8906 70.9813L70.775 70.9031L70.6469 70.7875L70.7469 70.6594L70.8594 70.5469L70.9563 70.4313L71.0719 70.3031L71.15 70.1906L71.25 70.0625L71.3625 69.9469L71.4594 69.8344L71.575 69.7062L71.6531 69.5906L71.7688 69.4781L71.8656 69.35L71.9656 69.2344L72.0781 69.1063L72.1563 68.9937L72.2719 68.8781L72.3844 68.75L72.4969 68.85L72.6469 68.9469L72.7594 69.0437L72.9219 69.1281L73.0344 69.2125L73.1813 69.3094L73.3156 69.3937L73.4625 69.4562L73.575 69.5406L73.7219 69.5875L73.8844 69.6531L74.0188 69.7187L74.1656 69.7656L74.2938 69.8313L74.4563 69.8812L74.6031 69.9281L74.7656 69.9781L74.9281 69.9938L75.0781 70.0437L75.2406 70.0594H75.4188L75.5656 70.1063H76.4438L76.5906 70.0781L76.7531 70.0437L76.8656 70.0281L77 69.9781L77.1125 69.9156L77.2594 69.8156L77.3438 69.7031L77.4063 69.575L77.4563 69.425V69.05L77.3906 68.9031L77.3125 68.775L77.2125 68.6781L77.0656 68.5781L76.9531 68.5313L76.8063 68.4656L76.6438 68.4L76.4656 68.3219L76.35 68.2875L76.2219 68.2531L76.0594 68.2031L75.9469 68.175L75.7844 68.125L75.6219 68.1094L75.4563 68.0438L75.2938 68.0281L75.1156 67.9812L74.9688 67.9469L74.8063 67.8969L74.6438 67.8625L74.4813 67.8156L74.3344 67.7656L74.1719 67.7312L74.0438 67.6813L73.7469 67.5844L73.5844 67.5188L73.4219 67.4719L73.0969 67.3375L72.95 67.2594L72.7875 67.175L72.675 67.0969L72.525 67.0125L72.4125 66.9344L72.2656 66.85L72.0531 66.6375L71.9406 66.5406L71.7438 66.3125L71.6594 66.2L71.5969 66.0875L71.4969 65.9375L71.45 65.825L71.3 65.4344L71.2719 65.2719L71.2375 65.125V64.9781L71.2031 64.8156V64.15L71.2375 63.825L71.2719 63.6906L71.3 63.5437L71.35 63.4156L71.3844 63.2531L71.45 63.1406L71.5125 62.975L71.5781 62.8469L71.6406 62.6844L71.725 62.5719L71.8375 62.4438L71.9219 62.3094L72.05 62.1969L72.1469 62.0844L72.2469 61.95L72.3938 61.8375L72.4938 61.7531L72.6219 61.6562L72.8813 61.4937L73.0281 61.4094L73.325 61.2625L73.4531 61.2156L73.6 61.1656L73.7625 61.1L73.925 61.0531L74.0406 61.0187L74.1875 60.9844L74.3156 60.95L74.4625 60.9156L74.625 60.8813L74.95 60.8531L75.1 60.8375L75.2281 60.775ZM36.7344 60.8875H39.6813L39.8156 61.1844L39.8781 61.3125L39.9281 61.475L39.9938 61.6219L40.0406 61.75L40.125 61.8969L40.2219 62.1938L40.3063 62.3406L40.4344 62.6312L40.4688 62.7594L40.7281 63.3469L40.7781 63.4938L40.8438 63.6281L40.9219 63.775L40.9563 63.9219L41.0406 64.0844L41.0688 64.2313L41.2188 64.5219L41.2813 64.6375L41.3469 64.8L41.3969 64.9625L41.4438 65.075L41.5281 65.2375L41.5781 65.3719L41.6406 65.5344L41.6906 65.6469L41.7563 65.8094L41.9031 66.1L41.95 66.2469L41.9844 66.3969L42.05 66.5438L42.1281 66.6719L42.1938 66.8344L42.2594 66.9813L42.3063 67.1094L42.4406 67.4062L42.4875 67.5531L42.5531 67.7L42.6031 67.8469L42.6656 67.975L42.75 68.125L42.8125 68.2719L42.8781 68.4L42.9125 68.5625L43.0406 68.8531L43.1063 68.9875L43.1531 69.1344L43.2875 69.425L43.3656 69.5875L43.4 69.7156L43.4844 69.8812L43.5125 69.9938L43.5781 70.1563L43.6625 70.3188L43.725 70.4313L43.775 70.5938L43.8406 70.7281L43.8875 70.8906L43.9719 71.0031L44.0688 71.3281L44.1344 71.4437L44.1969 71.6062L44.2813 71.7344L44.3469 71.8969L44.375 72.0438L44.425 72.1719L44.4906 72.3188L44.5688 72.4531H41.3156L41.2375 72.3188L41.1875 72.1719L41.1219 72.025L41.0594 71.8625L41.025 71.7344L40.8906 71.4437L40.8438 71.3094L40.7156 71.0187L40.6656 70.8906L40.6 70.7281L40.5031 70.4313L40.4375 70.3031H35.9125L35.85 70.45L35.8 70.5844L35.7344 70.7469L35.6719 70.8938L35.6375 71.0219L35.5719 71.1844L35.5094 71.3125L35.4594 71.4594L35.3938 71.5937L35.3313 71.7562L35.2813 71.8687L35.2156 72.0312L35.1688 72.1937L35.1031 72.3094L35.0531 72.4719H31.8313L31.8781 72.3219L32.0125 72.0312L32.0594 71.8687L32.1094 71.7406L32.1938 71.5937L32.2563 71.4469L32.3219 71.3125L32.3563 71.1656L32.4188 71.0031L32.5031 70.875L32.5656 70.7281L32.6656 70.4313L32.8125 70.1406L32.8625 69.9938L32.925 69.8656L32.975 69.7156L33.1719 69.2781L33.2375 69.1156L33.2844 68.9875L33.3344 68.8406L33.4188 68.7063L33.4813 68.5438L33.5313 68.3969L33.5813 68.2688L33.6438 68.1063L33.7281 67.9906L33.7781 67.8281L33.8406 67.7L33.8906 67.5531L33.9563 67.3906L34.0344 67.2625L34.0844 67.1L34.1469 66.9844L34.1969 66.8219L34.2625 66.6594L34.325 66.5469L34.3906 66.3844L34.4406 66.25L34.5031 66.0875L34.5531 65.975L34.6375 65.8125L34.7 65.65L34.7656 65.5219L34.8 65.375L34.8625 65.225L34.9469 65.0781L35.0094 64.95L35.0438 64.7875L35.1094 64.6406L35.175 64.5063L35.3031 64.2156L35.35 64.0875L35.4844 63.7625L35.5469 63.6469L35.6125 63.4844L35.6625 63.3563L35.7094 63.1938L35.775 63.0469L35.8594 62.9188L35.9219 62.7563L35.9719 62.6406L36.0219 62.4781L36.0844 62.35L36.1688 62.2031L36.2188 62.0406L36.2656 61.9062L36.3313 61.7437L36.3938 61.6313L36.4781 61.4688L36.5281 61.3063L36.575 61.1938L36.6406 61.0313L36.7344 60.8875ZM45.8844 60.9719H49.1063L49.2063 61.1L49.3688 61.3625L49.4469 61.5094L49.5313 61.6219L49.6094 61.7688L49.6938 61.8969L49.7719 62.0469L49.8563 62.175L49.9344 62.2875L50.0188 62.4344L50.0969 62.5687L50.2125 62.6969L50.2594 62.825L50.3594 62.9719L50.4375 63.1063L50.5375 63.2187L50.6031 63.3656L50.6813 63.4938L50.7813 63.6281L50.8281 63.7563L50.9438 63.9031L51.1844 64.2937L51.25 64.4219L51.3469 64.55L51.4313 64.6781L51.5094 64.8281L51.7563 65.2156L51.8344 65.3656L51.9188 65.4938L52.0156 65.3656L52.0813 65.2L52.1781 65.0875L52.2625 64.9406L52.3406 64.8281L52.4063 64.6656L52.5188 64.55L52.6031 64.4031L52.6688 64.2906L52.7469 64.1563L52.8469 64.0094L52.925 63.8969L53.0094 63.7344L53.0875 63.6219L53.1875 63.4719L53.25 63.3594L53.3344 63.1969L53.4125 63.1L53.4969 62.9656L53.5938 62.8031L53.6781 62.6906L53.7406 62.5437L53.8406 62.4281L53.9188 62.2656L54.0031 62.1687L54.1 62.0406L54.1844 61.8781L54.2625 61.7625L54.3469 61.6156L54.425 61.5031L54.5094 61.3406L54.6063 61.225L54.6719 61.0781L54.7563 60.9656H58.0281V72.5875H54.9656V65.75L54.8875 65.8656L54.7875 66.0281L54.7094 66.125L54.6094 66.2531L54.5469 66.4156L54.4469 66.5313L54.3688 66.6438L54.2688 66.8063L54.1063 67.0344L54.0094 67.1625L53.925 67.325L53.8281 67.4406L53.7438 67.5531L53.6813 67.7156L53.5813 67.8281L53.5031 67.9438L53.4031 68.1063L53.325 68.2187L53.225 68.3469L53.1469 68.4937L53.0813 68.6094L52.9844 68.7375L52.9 68.8844L52.8031 68.9969L52.7031 69.1312L52.6406 69.2594L52.5563 69.4062L52.4594 69.5219L52.3594 69.65L52.2969 69.8125L52.1813 69.9094L52.1188 70.0375L52.0188 70.2031L51.9406 70.3156H51.875L51.7781 70.1688L51.6938 70.0344L51.6156 69.8875L51.5313 69.775L51.4344 69.6281L51.35 69.5L51.2531 69.3656L51.1688 69.2375L51.0906 69.0906L51.0063 68.9781L50.8938 68.8281L50.8281 68.7L50.7313 68.5531L50.6469 68.4406L50.5688 68.2938L50.4688 68.1594L50.3906 67.9969L50.2906 67.8844L50.2125 67.7375L50.1281 67.6031L50.05 67.4563L49.95 67.3437L49.8719 67.1969L49.7719 67.0687L49.7094 66.9344L49.6094 66.8063L49.5313 66.6594L49.4313 66.5469L49.3531 66.3969L49.2531 66.2687L49.1906 66.1219L49.075 66.0094L49.0125 65.8594L48.9125 65.7313V72.5844H45.9031V61.075L45.8844 60.9719ZM60.3344 60.9719H69.5V63.5938H63.3781V65.4656H68.8781V67.9406H63.3781V69.925H69.5781V72.5625H60.35V61.0719L60.3344 60.9719ZM38.1656 64.5344L38.1156 64.6812L38.0688 64.8156L38.0031 64.9781L37.9375 65.125L37.8906 65.2719L37.7563 65.5625L37.6938 65.725L37.6438 65.8594L37.5938 66.0219L37.5313 66.1344L37.4813 66.2969L37.4156 66.4594L37.3531 66.575L37.3031 66.7375L37.2406 66.8656L37.1906 67.0281L37.1063 67.175L37.0719 67.3031L37.0094 67.4656L36.9438 67.6156L36.8938 67.7437L36.8313 67.9062H39.5156L39.4531 67.7437L39.4031 67.5969L39.275 67.3L39.225 67.1531L39.1594 67.025L39.1125 66.8625L39.0469 66.7156L38.9969 66.5688L38.9344 66.4344L38.8844 66.2875L38.8188 66.125L38.7719 65.9969L38.6375 65.7062L38.6094 65.5563L38.5438 65.4094L38.4781 65.2469L38.4313 65.1344L38.2969 64.8094L38.25 64.6625L38.1656 64.5344ZM33.3844 86.2969H66.7625L49.725 91.9125L33.3844 86.2969Z" fill="white"/>
</g>
<defs>
<clipPath id="clip0_7_2">
<rect width="100" height="100" fill="white"/>
</clipPath>
</defs>
</svg>
