<svg width="200" height="200" viewBox="0 0 200 200" fill="none" xmlns="http://www.w3.org/2000/svg">
<g clip-path="url(#clip0_15_6)">
<rect x="63" y="170" width="73" height="14" fill="white"/>
<rect x="38" y="12" width="124" height="152" fill="white"/>
<path d="M29.475 -2.8483e-05C18.0417 -2.8483e-05 13.8333 4.21664 13.8333 15.6583V153.667C13.8277 154.871 13.8833 156.076 14 157.275C14.2583 159.775 14.3083 162.192 16.6333 164.942C16.8583 165.217 19.225 166.983 19.225 166.983C20.5 167.608 21.375 168.067 22.8083 168.65L92.2667 197.742C95.875 199.4 97.3834 200.042 100 199.992H100.017C102.633 200.042 104.142 199.4 107.75 197.742L177.208 168.642C178.642 168.058 179.517 167.608 180.792 166.975C180.792 166.975 183.158 165.217 183.383 164.95C185.717 162.2 185.758 159.775 186.017 157.283C186.134 156.081 186.189 154.874 186.183 153.667V15.6583C186.183 4.21664 181.967 -0.00836182 170.533 -0.00836182L29.475 -2.8483e-05ZM140.858 25.9166H146.525C156.008 25.9166 160.592 30.525 160.592 40.05V55.7166H149.142V40.7166C149.142 37.6416 147.725 36.2166 144.783 36.2166H142.825C139.767 36.2166 138.35 37.6333 138.35 40.7083V89.125C138.35 92.2 139.767 93.625 142.825 93.625H145.008C147.95 93.625 149.367 92.2 149.367 89.125V71.825H160.808V89.6833C160.808 99.2166 156.125 103.933 146.642 103.933H140.858C131.375 103.933 126.692 99.2166 126.692 89.6833V40.1666C126.692 30.6333 131.375 25.925 140.858 25.925V25.9166ZM39.3083 26.5833H65.2583V37.2H50.975V58.8916H64.7083V69.5166H50.975V92.6333H65.475V103.258H39.3083V26.5833ZM71.1083 26.5833H89.425C98.9084 26.5833 103.592 31.2833 103.592 40.8166V61.1916C103.592 70.725 98.9084 75.4416 89.425 75.4416H82.7667V103.258H71.1L71.1083 26.5833ZM108.858 26.5833H120.525V103.258H108.858V26.5833ZM82.775 36.875V65.1416H87.5667C90.5167 65.1416 91.925 63.7166 91.925 60.6416V41.375C91.925 38.3083 90.5084 36.875 87.5667 36.875H82.775ZM51.6083 121.433C53.2903 121.44 54.9577 121.745 56.5333 122.333C58.0227 122.933 59.4024 123.775 60.6167 124.825L56.85 129.375C56.0787 128.71 55.2139 128.163 54.2833 127.75C53.3243 127.356 52.2948 127.163 51.2583 127.183C50.4533 127.177 49.6567 127.347 48.925 127.683C48.2189 128.008 47.5843 128.47 47.0583 129.042C46.5181 129.634 46.0915 130.32 45.8 131.067C45.4863 131.86 45.3279 132.706 45.3333 133.558V133.625C45.327 134.508 45.4852 135.384 45.8 136.208C46.0883 136.973 46.534 137.669 47.1083 138.25C47.6756 138.82 48.3495 139.273 49.0917 139.583C49.8924 139.912 50.7511 140.077 51.6167 140.067C52.9213 140.119 54.2121 139.783 55.325 139.1V136.275H50.7583V131.567H61.4167V142.025C60.0984 143.093 58.6262 143.956 57.05 144.583C55.2379 145.293 53.3043 145.641 51.3583 145.608C49.645 145.628 47.9433 145.325 46.3417 144.717C44.8639 144.15 43.5109 143.301 42.3583 142.217C41.2257 141.147 40.3239 139.856 39.7083 138.425C39.0575 136.898 38.7312 135.252 38.75 133.592V133.525C38.7346 131.894 39.0551 130.277 39.6917 128.775C40.3029 127.341 41.1858 126.04 42.2917 124.942C43.422 123.827 44.7654 122.951 46.2417 122.367C47.8272 121.738 49.5197 121.424 51.225 121.442C51.35 121.44 51.475 121.44 51.6 121.442L51.6083 121.433ZM151.3 121.5C153.03 121.496 154.751 121.76 156.4 122.283C157.936 122.792 159.367 123.574 160.625 124.592L157.408 129.142C156.411 128.421 155.317 127.846 154.158 127.433C153.121 127.059 152.028 126.861 150.925 126.85C150.316 126.808 149.709 126.96 149.192 127.283C149.015 127.398 148.869 127.555 148.768 127.74C148.666 127.924 148.611 128.131 148.608 128.342V128.408C148.603 128.654 148.666 128.897 148.792 129.108C148.952 129.343 149.17 129.533 149.425 129.658C149.816 129.864 150.227 130.031 150.65 130.158C151.167 130.325 151.817 130.492 152.617 130.667C153.832 130.926 155.029 131.266 156.2 131.683C157.174 132.022 158.095 132.499 158.933 133.1C159.658 133.621 160.249 134.306 160.658 135.1C161.074 135.976 161.277 136.939 161.25 137.908V137.975C161.271 139.074 161.04 140.162 160.575 141.158C160.126 142.083 159.473 142.895 158.667 143.533C157.792 144.219 156.793 144.728 155.725 145.033C154.479 145.387 153.187 145.559 151.892 145.542C149.879 145.552 147.879 145.226 145.975 144.575C144.151 143.956 142.47 142.975 141.033 141.692L144.617 137.408C146.925 139.267 149.433 140.2 152.117 140.2C152.798 140.24 153.477 140.096 154.083 139.783C154.295 139.668 154.471 139.497 154.592 139.288C154.712 139.079 154.773 138.841 154.767 138.6V138.533C154.77 138.308 154.712 138.087 154.6 137.892C154.445 137.661 154.236 137.473 153.992 137.342C153.613 137.129 153.214 136.956 152.8 136.825C152.162 136.621 151.514 136.449 150.858 136.308C149.698 136.043 148.55 135.729 147.417 135.367C146.437 135.059 145.508 134.61 144.658 134.033C143.894 133.51 143.26 132.817 142.808 132.008C142.327 131.083 142.092 130.05 142.125 129.008V128.942C142.114 127.912 142.324 126.892 142.742 125.95C143.151 125.039 143.76 124.233 144.525 123.592C145.361 122.899 146.323 122.376 147.358 122.05C148.565 121.669 149.826 121.483 151.092 121.5C151.161 121.5 151.231 121.5 151.3 121.5V121.5ZM73.3167 121.708H79.5L89.3583 145.125H82.4833L80.7917 140.967H71.8583L70.2083 145.117H63.4583L73.3167 121.708ZM91.625 121.875H98.4084L103.933 130.875L109.458 121.875H116.242V145.125H109.858V131.775L103.933 140.867H103.8L97.9083 131.842V145.117H91.625V121.875ZM120.533 121.875H139.158V127.358H126.883V130.875H138V135.958H126.883V139.642H139.325V145.125H120.533V121.875ZM76.3667 129.35L73.7417 135.958H78.9417L76.3667 129.35ZM66.825 172.6H133.608L99.525 183.833L66.825 172.6Z" fill="black"/>
</g>
<defs>
<clipPath id="clip0_15_6">
<rect width="200" height="200" fill="white"/>
</clipPath>
</defs>
</svg>
