<svg width="100" height="100" viewBox="0 0 100 100" fill="none" xmlns="http://www.w3.org/2000/svg">
<path d="M88.8281 83.4473L63.4668 58.0859C67.4024 52.998 69.5313 46.7773 69.5313 40.2344C69.5313 32.4023 66.4746 25.0586 60.9473 19.5215C55.4199 13.9844 48.0566 10.9375 40.2344 10.9375C32.4121 10.9375 25.0488 13.9941 19.5215 19.5215C13.9844 25.0488 10.9375 32.4023 10.9375 40.2344C10.9375 48.0566 13.9941 55.4199 19.5215 60.9473C25.0488 66.4844 32.4023 69.5313 40.2344 69.5313C46.7773 69.5313 52.9883 67.4023 58.0762 63.4766L83.4375 88.8281C83.5119 88.9025 83.6002 88.9616 83.6974 89.0018C83.7945 89.0421 83.8987 89.0628 84.0039 89.0628C84.1091 89.0628 84.2133 89.0421 84.3105 89.0018C84.4077 88.9616 84.496 88.9025 84.5703 88.8281L88.8281 84.5801C88.9025 84.5057 88.9616 84.4174 89.0018 84.3202C89.0421 84.223 89.0628 84.1189 89.0628 84.0137C89.0628 83.9085 89.0421 83.8043 89.0018 83.7071C88.9616 83.6099 88.9025 83.5216 88.8281 83.4473V83.4473ZM55.7031 55.7031C51.5625 59.834 46.0742 62.1094 40.2344 62.1094C34.3945 62.1094 28.9063 59.834 24.7656 55.7031C20.6348 51.5625 18.3594 46.0742 18.3594 40.2344C18.3594 34.3945 20.6348 28.8965 24.7656 24.7656C28.9063 20.6348 34.3945 18.3594 40.2344 18.3594C46.0742 18.3594 51.5723 20.625 55.7031 24.7656C59.834 28.9063 62.1094 34.3945 62.1094 40.2344C62.1094 46.0742 59.834 51.5723 55.7031 55.7031Z" fill="#ACACAC"/>
</svg>
