<svg width="422" height="386" viewBox="0 0 422 386" fill="none" xmlns="http://www.w3.org/2000/svg">
<path d="M218.342 271.752C220.988 323.56 264.945 363.244 316.752 360.598C368.56 357.952 408.244 313.996 405.598 262.189C402.952 210.381 358.996 170.696 307.189 173.342C255.381 175.988 215.697 219.945 218.342 271.752Z" fill="#FFDD67"/>
<path d="M361.862 281.945C363.232 308.785 399.747 306.92 398.377 280.08C397.372 260.418 378.299 242.305 378.299 242.305C378.299 242.305 360.858 262.283 361.862 281.945" fill="#65B1EF"/>
<path d="M333.532 290.902C342.15 290.462 348.779 283.118 348.339 274.5C347.899 265.882 340.556 259.252 331.938 259.692C323.319 260.133 316.69 267.476 317.13 276.094C317.57 284.712 324.913 291.342 333.532 290.902Z" fill="#664E27"/>
<path d="M261.75 294.568C270.368 294.128 276.998 286.784 276.558 278.166C276.118 269.548 268.774 262.918 260.156 263.358C251.538 263.799 244.908 271.142 245.348 279.76C245.789 288.378 253.132 295.008 261.75 294.568Z" fill="#664E27"/>
<path d="M274.463 231.024C264.906 239.961 251.678 244.391 238.442 242.564C236.554 242.348 235.328 248.981 237.545 249.494C252.668 251.538 268.05 246.371 279.103 236.107C280.584 234.466 275.648 229.712 274.463 231.024ZM351.404 236.482C338.408 239.336 324.812 236.588 314.395 228.672C313.083 227.487 308.344 232.736 310.297 234.201C322.354 243.598 338.166 246.858 353.003 243.284C355.156 242.548 353.261 236.074 351.404 236.482" fill="#917524"/>
<path d="M333.447 313.748C315.106 309.991 295.932 314.413 281.181 325.805C277.58 328.805 285.252 338.113 288.869 335.425C298.49 327.737 314.48 322.227 331.244 325.751C335.349 326.48 338.208 315.07 333.447 313.748" fill="#664E27"/>
<path d="M200 38L0 74.3636V219.818L200 183.455V38Z" fill="white"/>
<path d="M407 0L207 36.3636V181.818L407 145.455V0Z" fill="white"/>
<path d="M200 190L0 226.364V371.818L200 335.455V190Z" fill="white"/>
</svg>
