<svg width="422" height="389" viewBox="0 0 422 389" fill="none" xmlns="http://www.w3.org/2000/svg">
<path d="M200 38L0 74.3636V219.818L200 183.455V38Z" fill="white"/>
<path d="M407 0L207 36.3636V181.818L407 145.455V0Z" fill="white"/>
<path d="M200 190L0 226.364V371.818L200 335.455V190Z" fill="white"/>
<path d="M357.712 274.025L406.625 271.105L411.464 352.161C400.763 360.841 388.273 367.757 373.994 372.911C359.716 378.064 345.31 381.075 330.776 381.943C310.279 383.166 291.576 379.982 274.667 372.39C257.746 364.611 244.166 353.267 233.926 338.357C223.686 323.448 217.982 306.21 216.814 286.645C215.645 267.08 219.258 249.286 227.651 233.264C236.045 217.242 248.278 204.45 264.35 194.889C280.411 185.141 298.876 179.644 319.745 178.398C338.006 177.308 354.587 179.403 369.488 184.685C384.39 189.966 397.03 198.094 407.409 209.068L374.094 243.034C359.997 229.29 343.724 222.968 325.277 224.07C308.507 225.071 295.304 231.002 285.667 241.862C276.019 252.536 271.702 266.351 272.714 283.308C273.359 294.115 276.267 303.665 281.437 311.959C286.596 320.066 293.513 326.291 302.187 330.635C310.85 334.793 320.586 336.549 331.393 335.904C342.014 335.27 351.855 332.532 360.916 327.69L357.712 274.025Z" fill="white"/>
</svg>
